<?xml version="1.0" standalone="no"?>
<!DOCTYPE svg PUBLIC "-//W3C//DTD SVG 20010904//EN"
 "http://www.w3.org/TR/2001/REC-SVG-20010904/DTD/svg10.dtd">
<svg version="1.0" xmlns="http://www.w3.org/2000/svg"
 width="250.000000pt" height="250.000000pt" viewBox="0 0 250.000000 250.000000"
 preserveAspectRatio="xMidYMid meet">

<g transform="translate(0.000000,250.000000) scale(0.100000,-0.100000)"
fill="#000000" stroke="none">
<path d="M0 1250 l0 -1250 1250 0 1250 0 0 1250 0 1250 -1250 0 -1250 0 0
-1250z m1292 1051 c193 -110 285 -164 293 -173 14 -14 -42 14 -141 73 -47 28
-94 49 -106 47 -15 -2 0 -15 58 -49 163 -96 316 -180 321 -176 7 7 -40 48 -77
67 -22 11 -40 23 -40 26 0 3 21 -7 48 -22 26 -14 81 -46 122 -69 219 -124 375
-216 385 -227 5 -6 -3 -4 -18 6 -36 22 -43 16 -18 -15 17 -21 22 -22 40 -11
12 7 21 8 21 3 0 -5 -6 -11 -14 -14 -22 -9 -23 -464 -2 -492 18 -23 21 -45 6
-45 -5 0 -7 6 -4 14 3 8 1 17 -4 20 -7 4 -11 -79 -11 -229 -1 -156 2 -235 9
-235 5 0 10 5 10 12 0 6 3 9 6 6 3 -4 -2 -18 -11 -32 -17 -25 -12 -72 6 -61 5
4 9 1 9 -4 0 -14 -17 -14 -25 0 -8 12 -42 -15 -50 -40 -3 -9 -20 -25 -37 -35
l-33 -18 30 25 c60 50 15 36 -106 -34 -68 -40 -140 -81 -159 -91 -49 -28 -61
-39 -71 -65 -8 -23 -29 -32 -29 -13 0 6 5 10 10 10 6 0 10 5 10 11 0 8 -4 8
-13 1 -7 -6 -42 -26 -78 -44 -103 -53 -303 -171 -311 -184 -4 -7 -20 -15 -34
-18 -20 -5 -25 -12 -21 -26 8 -31 -14 -25 -110 32 -195 114 -255 149 -411 238
-89 51 -161 95 -158 97 2 2 46 -21 97 -51 95 -55 129 -69 126 -51 -1 6 -6 10
-12 10 -5 0 -23 10 -40 23 -42 31 -339 200 -344 196 -9 -8 26 -38 91 -76 37
-22 68 -42 68 -45 0 -5 -39 17 -172 96 l-78 46 2 175 c2 149 3 157 5 53 3 -93
7 -124 19 -134 13 -11 15 14 13 219 0 137 -5 232 -10 232 -6 0 -5 9 1 20 16
29 9 482 -7 487 -6 2 -13 -4 -16 -14 -3 -13 -5 -11 -6 7 -1 18 8 30 32 44 17
10 73 42 122 71 50 28 149 86 222 128 72 42 147 85 165 96 18 10 112 64 208
120 96 55 178 101 182 101 4 0 22 -8 40 -19z m-952 -601 c4 -3 1 -18 -6 -35
-13 -30 -13 -30 -13 20 0 28 3 43 6 35 3 -8 9 -17 13 -20z m1840 -15 c0 -8 -2
-15 -4 -15 -2 0 -6 7 -10 15 -3 8 -1 15 4 15 6 0 10 -7 10 -15z m-1853 -272
c-1 -43 -3 -10 -3 72 0 83 2 118 3 78 2 -40 2 -107 0 -150z m3 -253 l-7 -95 0
120 c0 66 3 109 6 95 4 -14 4 -68 1 -120z m1480 -664 c0 -2 -7 -7 -16 -10 -8
-3 -12 -2 -9 4 6 10 25 14 25 6z m-230 -131 c0 -2 -10 -9 -22 -15 -22 -11 -22
-10 -4 4 21 17 26 19 26 11z m-174 -100 c-11 -8 -25 -15 -30 -15 -6 1 0 7 14
15 32 19 40 18 16 0z m-47 -28 c-2 -2 -22 -14 -44 -27 l-40 -23 25 25 c14 14
34 26 44 27 11 1 17 0 15 -2z"/>
<path d="M1213 2288 c-13 -6 -23 -15 -23 -20 0 -14 37 -9 50 7 12 14 15 14 30
0 18 -16 50 -20 50 -7 0 11 -46 32 -68 31 -9 0 -27 -5 -39 -11z"/>
<path d="M990 2159 c-158 -92 -206 -126 -194 -138 2 -2 12 3 22 12 10 10 22
17 27 17 19 0 344 193 339 201 -3 5 -8 9 -12 9 -4 0 -86 -46 -182 -101z"/>
<path d="M1078 2152 c-91 -53 -164 -100 -162 -104 3 -4 -3 -8 -12 -8 -27 0
-142 -69 -155 -92 -6 -12 -14 -16 -18 -11 -3 6 -75 -29 -173 -85 -152 -87
-184 -112 -142 -112 20 0 295 161 301 177 3 7 9 11 13 8 5 -3 24 3 42 13 18
11 59 33 90 51 31 18 62 39 68 46 7 8 17 15 23 15 5 0 75 37 153 81 106 60
144 86 144 100 0 11 -1 19 -2 18 -2 0 -78 -44 -170 -97z"/>
<path d="M1260 2226 c0 -11 95 -70 280 -174 19 -10 79 -45 133 -77 54 -32 100
-55 103 -52 10 10 -55 63 -112 92 -32 17 -61 33 -64 36 -8 10 -323 189 -332
189 -4 0 -8 -6 -8 -14z"/>
<path d="M1155 2113 c-119 -68 -126 -72 -310 -178 -93 -54 -213 -123 -265
-152 -52 -30 -103 -61 -112 -70 -17 -15 -18 -49 -18 -452 0 -240 3 -446 6
-457 6 -22 29 -36 552 -336 233 -134 244 -139 270 -125 33 16 624 356 707 406
l60 36 0 465 0 464 -120 69 c-66 38 -138 79 -160 92 -22 12 -142 81 -266 154
-125 72 -235 131 -245 131 -11 0 -55 -21 -99 -47z m208 -563 l52 -94 98 -40
c53 -22 97 -45 97 -50 0 -6 -34 -44 -75 -86 l-74 -75 -7 -103 c-4 -64 -11
-105 -19 -108 -6 -3 -53 16 -104 41 l-93 46 -106 -25 c-58 -14 -107 -24 -109
-22 -2 2 3 52 12 111 l16 107 -57 94 c-31 52 -55 96 -52 99 2 3 51 13 108 22
l103 18 71 82 c39 45 74 81 79 80 4 -1 31 -45 60 -97z m-178 71 c-15 -14 -68
-26 -220 -50 -110 -18 -207 -34 -216 -37 -13 -4 -19 -27 -29 -107 -6 -56 -14
-110 -16 -119 -3 -11 12 -29 51 -58 30 -22 55 -44 55 -48 0 -4 -25 -35 -56
-69 -31 -35 -52 -63 -47 -63 5 0 56 16 113 35 114 38 150 43 150 20 0 -9 -9
-15 -23 -15 -13 0 -94 -25 -181 -55 -88 -31 -160 -54 -162 -53 -1 2 35 47 82
100 l85 97 -51 38 c-44 32 -51 42 -46 64 2 14 10 74 16 135 7 60 15 113 19
117 6 6 429 82 481 86 11 1 9 -4 -5 -18z m459 -156 c43 -8 80 -16 81 -17 2 -2
42 -68 90 -147 l87 -145 -64 -58 c-34 -31 -66 -57 -70 -58 -14 0 -8 -23 31
-132 21 -60 35 -108 31 -108 -4 0 -38 28 -76 62 -127 114 -105 104 -167 78
-55 -23 -93 -21 -84 3 2 6 11 11 20 9 9 -1 39 9 67 23 58 29 53 31 134 -44 53
-51 54 -49 15 54 l-19 50 62 57 c35 32 66 57 71 58 4 0 7 4 7 8 0 15 -149 256
-162 263 -7 3 -30 9 -50 13 -38 7 -128 43 -128 52 0 2 10 2 23 -1 12 -3 58
-12 101 -20z"/>
<path d="M1228 1550 l-67 -77 -98 -18 c-54 -10 -99 -19 -101 -20 -2 -2 21 -42
50 -90 l54 -86 -14 -101 c-7 -55 -12 -102 -9 -104 2 -2 46 7 99 20 l96 23 92
-44 c51 -24 95 -42 97 -40 2 2 7 47 12 101 l10 97 72 77 71 77 -53 22 c-134
56 -140 61 -189 155 -25 48 -47 87 -50 87 -3 0 -35 -36 -72 -79z"/>
<path d="M600 1934 c-148 -85 -197 -120 -186 -131 2 -2 48 22 102 53 55 31
133 77 176 101 65 37 105 73 80 73 -4 0 -81 -43 -172 -96z"/>
<path d="M1738 2014 c5 -9 83 -59 173 -111 189 -109 191 -111 183 -90 -3 8
-31 31 -62 49 -91 55 -290 168 -297 168 -3 0 -2 -7 3 -16z"/>
<path d="M1786 1926 c8 -14 78 -61 155 -105 132 -77 175 -95 167 -70 -4 11
-316 198 -331 199 -4 0 0 -11 9 -24z"/>
<path d="M368 1800 c-27 -16 -28 -30 -2 -30 12 0 40 38 32 44 -2 2 -15 -4 -30
-14z"/>
<path d="M380 1545 c0 -147 3 -194 12 -189 8 5 9 2 3 -12 -14 -30 -18 -160 -5
-183 7 -14 7 -21 0 -21 -6 0 -10 -66 -10 -190 0 -161 2 -190 15 -190 13 0 14
63 12 487 -1 378 -5 487 -14 491 -10 3 -13 -40 -13 -193z"/>
<path d="M2102 1723 c-10 -21 -8 -320 3 -345 4 -10 3 -18 -1 -18 -7 0 -10
-473 -4 -592 0 -5 7 -8 15 -8 13 0 15 28 15 191 0 159 -2 190 -14 186 -11 -5
-11 0 1 24 16 31 15 147 -2 183 -6 14 -5 17 3 12 9 -5 12 42 12 188 0 187 -6
224 -28 179z"/>
<path d="M330 767 c0 -27 4 -37 13 -35 18 7 20 31 3 53 -15 19 -15 18 -16 -18z"/>
<path d="M405 749 c-4 -6 -5 -11 -4 -12 2 -1 18 -12 36 -25 18 -12 34 -22 37
-22 3 0 59 -32 125 -70 66 -39 124 -69 128 -68 5 2 18 -6 30 -17 12 -11 48
-33 80 -50 32 -16 65 -35 73 -42 32 -24 333 -193 338 -189 14 15 -20 41 -148
114 -79 45 -154 82 -169 82 -18 0 -22 3 -13 9 9 5 -18 25 -85 63 -54 30 -99
51 -101 47 -2 -5 -13 2 -25 16 -18 19 -276 175 -291 175 -3 0 -8 -5 -11 -11z"/>
<path d="M1945 678 c-77 -45 -143 -86 -147 -91 -3 -6 -13 -12 -22 -13 -8 -1
-57 -26 -108 -56 -80 -45 -89 -53 -66 -56 33 -4 155 64 164 91 4 13 9 16 13 8
7 -10 80 28 298 155 31 18 38 35 17 40 -5 2 -72 -34 -149 -78z"/>
<path d="M350 712 c0 -5 11 -14 25 -20 26 -12 33 -4 13 16 -14 14 -38 16 -38
4z"/>
<path d="M816 441 c20 -20 344 -201 359 -201 27 0 16 16 -27 38 -52 26 -149
81 -163 92 -52 40 -204 104 -169 71z"/>
<path d="M1410 370 c-127 -74 -162 -101 -149 -115 6 -5 313 166 334 186 5 5
-2 9 -20 9 -19 -1 -82 -31 -165 -80z"/>
<path d="M1190 225 c0 -2 14 -11 30 -20 25 -13 30 -13 30 -1 0 7 -7 17 -16 20
-19 7 -44 8 -44 1z"/>
</g>
</svg>
